<?xml version="1.0" encoding="UTF-8"?>
<!DOCTYPE svg PUBLIC "-//W3C//DTD SVG 1.1//EN" "http://www.w3.org/Graphics/SVG/1.1/DTD/svg11.dtd">
<!-- Creator: CorelDRAW 2017 -->
<svg xmlns="http://www.w3.org/2000/svg" xml:space="preserve" width="26.4677cm" height="3.92666cm" version="1.1" style="shape-rendering:geometricPrecision; text-rendering:geometricPrecision; image-rendering:optimizeQuality; fill-rule:evenodd; clip-rule:evenodd"
viewBox="0 0 27121.19 4023.61"
 xmlns:xlink="http://www.w3.org/1999/xlink">
 <defs>
  <style type="text/css">
   <![CDATA[
    .fil0 {fill:#00587C}
    .fil1 {fill:#00587C;fill-rule:nonzero}
   ]]>
  </style>
 </defs>
 <g id="Capa_x0020_1">
  <metadata id="CorelCorpID_0Corel-Layer"/>
  <path id="__x201c_" class="fil0" d="M618.91 3638.02c951.01,-347.2 1509.55,-1388.78 1509.55,-2294.5 0,-739.68 -362.3,-1343.52 -1132.17,-1343.52 -573.62,0 -996.3,467.97 -996.3,981.22 0,603.81 467.97,905.73 1026.48,981.21 -120.74,271.72 -437.75,724.58 -860.42,966.12l452.85 709.46zm2717.2 0c951,-347.2 1509.53,-1388.78 1509.53,-2294.5 0,-739.68 -362.28,-1343.52 -1132.15,-1343.52 -573.62,0 -996.3,467.97 -996.3,981.22 0,603.81 467.93,905.73 1026.48,981.21 -120.77,271.72 -437.78,724.58 -860.45,966.12l452.88 709.46z"/>
  <path class="fil1" d="M5722.35 1379.43l0 -1334.61 560.16 0c60.15,0 115.29,12.53 165.42,37.6 50.13,25.06 93.98,58.26 131.58,99.62 37.6,41.36 66.42,87.72 86.46,139.1 20.05,51.38 30.08,104.02 30.08,157.89 0,73.94 -16.61,144.43 -49.82,211.48 -33.21,67.05 -80.2,121.24 -140.98,162.6 -60.77,41.35 -131.27,62.02 -211.48,62.02l-360.91 0 0 464.3 -210.52 0zm210.52 -650.39l347.75 0c40.11,0 75.19,-10.96 105.27,-32.89 30.07,-21.93 53.57,-51.7 70.49,-89.28 16.92,-37.6 25.38,-80.2 25.38,-127.83 0,-48.87 -10.02,-92.1 -30.07,-129.7 -20.05,-37.6 -46.06,-66.74 -78.01,-87.41 -31.96,-20.68 -66.73,-31.02 -104.32,-31.02l-336.48 0 0 498.12z"/>
  <path id="1" class="fil1" d="M7290.04 1398.22c-77.7,0 -147.25,-13.46 -208.66,-40.1 -61.4,-26.63 -114.35,-63.6 -158.84,-110.9 -44.48,-46.99 -78.63,-100.88 -102.44,-161.03 -23.81,-60.15 -35.72,-124.38 -35.72,-192.67 0,-68.3 11.91,-132.84 35.72,-193.62 23.8,-60.77 57.96,-114.66 102.44,-161.03 44.49,-46.68 97.75,-83.34 159.78,-109.97 62.03,-26.62 131.27,-40.1 207.71,-40.1 76.44,0 145.68,13.47 207.7,40.1 62.03,26.63 115.29,63.28 159.78,109.97 44.48,46.37 78.63,100.26 102.45,161.03 23.8,60.77 35.71,125.32 35.71,193.62 0,68.3 -11.91,132.52 -35.71,192.67 -23.81,60.15 -57.97,114.04 -102.45,161.03 -44.49,47.3 -97.75,84.27 -159.78,110.9 -62.02,26.63 -131.26,40.1 -207.7,40.1zm-293.25 -502.83c0,61.72 13.16,117.48 39.48,166.68 26.31,49.49 61.4,88.34 105.27,116.86 43.86,28.51 93.36,42.61 148.5,42.61 53.88,0 103.06,-14.42 147.56,-43.55 44.49,-29.13 79.88,-68.61 106.21,-118.74 26.31,-49.81 39.47,-105.26 39.47,-165.72 0,-61.72 -13.16,-117.49 -39.47,-166.68 -26.32,-49.49 -61.72,-88.66 -106.21,-117.79 -44.49,-29.14 -93.68,-43.55 -147.56,-43.55 -55.14,0 -104.64,14.72 -148.5,44.48 -43.87,29.77 -78.95,68.93 -105.27,117.8 -26.32,48.56 -39.48,104.64 -39.48,167.61z"/>
  <path id="2" class="fil1" d="M8532.54 574.9c-80.2,1.25 -151.32,19.43 -213.35,54.51 -62.03,35.09 -106.21,84.59 -132.52,148.5l0 601.51 -206.77 0 0 -975.58 191.74 0 0 212.41c33.84,-67.67 78.32,-121.88 133.46,-162.6 55.14,-40.73 113.41,-62.98 174.81,-66.73 12.53,0 22.87,0 31.02,0 8.15,0 15.35,0.63 21.62,1.88l0 186.09z"/>
  <path id="3" class="fil1" d="M9229.93 1332.44c-17.55,8.77 -39.48,18.17 -65.8,28.2 -26.31,10.02 -56.08,18.79 -89.29,26.31 -33.2,7.52 -67.35,11.27 -102.44,11.27 -42.61,0 -82.09,-7.51 -118.42,-22.55 -36.35,-14.72 -65.48,-38.85 -87.41,-72.06 -21.94,-32.89 -32.9,-75.82 -32.9,-128.14l0 -611.85 -129.7 0 0 -159.77 129.7 0 0 -323.32 206.77 0 0 323.32 214.29 0 0 159.77 -214.29 0 0 545.75c2.51,33.53 13.47,58.59 32.89,74.57 19.43,16.29 43.55,24.44 72.37,24.44 28.82,0 56.39,-5.02 82.71,-15.04 26.31,-10.02 45.73,-18.17 58.26,-24.44l43.24 163.54z"/>
  <path id="4" class="fil1" d="M9301.35 1094.65c0,-62.02 17.86,-116.54 53.58,-162.91 35.71,-46.68 84.9,-82.71 147.56,-108.08 62.66,-25.38 135.34,-38.22 218.04,-38.22 43.87,0 88.67,3.13 134.41,9.4 45.73,6.26 86.16,16.29 121.24,30.07l0 -61.72c0,-67.99 -20.68,-120.93 -62.03,-159.15 -41.36,-38.22 -100.88,-57.33 -178.57,-57.33 -55.14,0 -107.14,9.71 -156.02,29.14 -48.87,19.42 -100.88,46.67 -156.02,81.77l-69.55 -139.1c65.16,-43.87 130.64,-76.44 196.43,-97.75 65.79,-21.3 135.02,-31.96 207.7,-31.96 131.58,0 235.28,34.46 311.1,103.07 75.82,68.92 113.73,166.36 113.73,292.93l0 362.16c0,23.81 4.07,40.41 12.21,50.45 8.15,9.7 22.25,15.35 42.3,16.6l0 165.42c-18.8,3.76 -35.72,6.26 -50.75,7.52 -15.04,1.25 -27.57,1.88 -37.6,1.88 -43.87,0 -77.08,-10.65 -99.63,-31.95 -22.55,-21.3 -35.71,-46.37 -39.47,-75.19l-5.65 -56.39c-42.61,55.14 -97.11,97.75 -163.53,127.82 -66.42,30.07 -133.47,45.11 -201.14,45.11 -65.16,0 -123.43,-13.46 -174.81,-40.1 -51.38,-26.63 -91.48,-62.97 -120.3,-109.03 -28.82,-45.74 -43.24,-97.43 -43.24,-154.45zm625.95 58.9c15.04,-15.97 26.95,-31.95 35.72,-47.93 8.77,-16.29 13.16,-30.38 13.16,-42.61l0 -110.9c-35.09,-13.47 -72.06,-23.81 -110.9,-30.7 -38.86,-6.58 -77.08,-10.03 -114.66,-10.03 -75.19,0 -136.28,14.72 -183.28,44.49 -46.99,29.45 -70.49,70.18 -70.49,121.87 0,28.51 7.83,55.46 23.5,81.45 15.66,25.7 38.22,46.68 67.67,62.66 29.45,15.99 66.1,24.12 109.96,24.12 45.12,0 88.35,-8.77 129.71,-26 41.36,-17.24 74.56,-39.16 99.62,-66.42z"/>
  <path id="5" class="fil1" d="M10434.83 7.22l206.77 0 0 1091.81c0,50.13 7.51,82.4 22.55,96.18 15.03,13.79 33.84,20.68 56.39,20.68 25.06,0 48.56,-2.5 70.49,-7.51 21.94,-5.02 41.05,-11.28 57.33,-18.8l30.08 163.54c-30.08,12.53 -65.8,23.18 -107.15,31.95 -41.36,8.77 -78.32,13.16 -110.9,13.16 -70.18,0 -125.32,-19.74 -165.42,-59.52 -40.11,-39.47 -60.15,-94.29 -60.15,-164.79l0 -1166.68z"/>
  <path id="6" class="fil1" d="M11348.38 893.52c0,-93.05 19.11,-177.95 57.33,-254.08 38.22,-76.44 90.54,-137.22 156.95,-182.64 66.42,-45.43 142.86,-67.99 229.33,-67.99 75.19,0 143.18,19.43 203.95,58.27 60.77,38.85 108.08,87.09 141.92,144.74l0 -584.6 206.77 0 0 1139.12c0,23.81 4.39,40.73 13.16,50.75 8.77,10.02 23.19,15.67 43.23,16.92l0 165.42c-38.85,6.26 -68.92,9.4 -90.22,9.4 -38.85,0 -71.74,-11.27 -98.69,-33.84 -26.94,-22.55 -41.04,-49.49 -42.29,-80.83l-1.89 -73.31c-37.6,62.66 -88.35,111.22 -152.26,145.68 -63.91,34.46 -130.33,51.69 -199.25,51.69 -67.67,0 -130.01,-13.16 -187.03,-39.15 -57.02,-26.01 -106.53,-62.66 -148.51,-109.97 -41.97,-46.99 -74.56,-101.19 -97.75,-161.97 -23.18,-60.77 -34.77,-125.31 -34.77,-193.6zm789.48 135.34l0 -254.08c-13.78,-39.47 -36.03,-74.87 -66.73,-106.52 -30.7,-31.32 -65.17,-56.39 -103.39,-74.87 -38.22,-18.49 -76.12,-27.88 -113.72,-27.88 -43.86,0 -83.65,9.4 -119.37,27.88 -35.71,18.49 -66.41,43.23 -92.1,73.93 -25.69,31.02 -45.43,66.1 -59.22,105.89 -13.78,39.48 -20.68,80.83 -20.68,124.07 0,44.48 7.52,86.15 22.56,125 15.03,38.85 36.65,73.62 64.84,103.7 28.2,30.38 60.78,53.88 97.75,70.49 36.97,16.6 77.38,25.06 121.25,25.06 27.56,0 55.45,-5.01 83.65,-14.72 28.2,-10.03 55.14,-23.5 80.83,-40.73 25.69,-17.54 47.62,-37.9 65.8,-61.4 18.17,-23.5 31.01,-48.56 38.53,-75.82z"/>
  <path id="7" class="fil1" d="M13053.3 1398.22c-76.45,0 -145.68,-13.46 -207.71,-40.1 -62.03,-26.63 -115.61,-63.6 -160.71,-109.97 -45.12,-46.67 -79.9,-100.25 -104.33,-160.71 -24.43,-60.15 -36.65,-124.68 -36.65,-192.99 0,-91.79 21.3,-175.75 63.91,-251.88 42.61,-76.13 102.13,-137.53 178.57,-183.9 76.45,-46.68 166.05,-69.86 268.81,-69.86 102.76,0 191.42,23.18 265.98,69.86 74.57,46.37 132.52,107.46 173.88,183.28 41.36,75.82 62.03,156.95 62.03,243.73 0,15.04 -0.64,28.82 -1.89,41.98 -1.25,13.16 -2.51,23.81 -3.76,32.59l-787.61 0c3.76,57.01 19.74,106.83 47.93,149.44 28.2,42.61 64.23,75.82 108.08,99.94 43.86,24.12 90.85,36.34 140.98,36.34 55.14,0 107.46,-13.78 156.96,-41.35 49.5,-27.57 83.02,-63.91 100.56,-109.03l176.7 50.75c-21.3,47.62 -53.57,90.54 -96.8,128.76 -43.24,38.22 -94.3,68.3 -153.2,90.22 -58.9,21.93 -122.81,32.89 -191.73,32.89zm-295.12 -575.19l593.99 0c-3.76,-55.46 -19.74,-104.02 -47.93,-146.62 -28.19,-42.3 -63.91,-75.5 -107.14,-99.31 -43.23,-24.12 -91.17,-36.03 -143.79,-36.03 -51.39,0 -98.69,11.91 -141.92,36.03 -43.24,23.81 -78.64,57.01 -106.21,99.31 -27.57,42.61 -43.23,91.17 -46.99,146.62z"/>
  <path id="8" class="fil1" d="M5722.35 3623.22l0 -1334.61 560.16 0c60.15,0 115.29,12.53 165.42,37.6 50.13,25.06 93.98,58.26 131.58,99.62 37.6,41.36 66.42,87.72 86.46,139.1 20.05,51.38 30.08,104.02 30.08,157.89 0,73.94 -16.61,144.43 -49.82,211.48 -33.21,67.05 -80.2,121.24 -140.98,162.6 -60.77,41.35 -131.27,62.02 -211.48,62.02l-360.91 0 0 464.3 -210.52 0zm210.52 -650.39l347.75 0c40.11,0 75.19,-10.96 105.27,-32.89 30.07,-21.93 53.57,-51.7 70.49,-89.28 16.92,-37.6 25.38,-80.2 25.38,-127.83 0,-48.87 -10.02,-92.1 -30.07,-129.7 -20.05,-37.6 -46.06,-66.74 -78.01,-87.41 -31.96,-20.68 -66.73,-31.02 -104.32,-31.02l-336.48 0 0 498.12z"/>
  <path id="9" class="fil1" d="M6784.39 3338.44c0,-62.02 17.86,-116.54 53.58,-162.91 35.71,-46.68 84.9,-82.71 147.56,-108.08 62.66,-25.38 135.34,-38.22 218.04,-38.22 43.87,0 88.67,3.13 134.41,9.4 45.73,6.26 86.16,16.29 121.24,30.07l0 -61.72c0,-67.99 -20.68,-120.93 -62.03,-159.15 -41.36,-38.22 -100.88,-57.33 -178.57,-57.33 -55.14,0 -107.14,9.71 -156.02,29.14 -48.87,19.42 -100.88,46.67 -156.02,81.77l-69.55 -139.1c65.16,-43.87 130.64,-76.44 196.43,-97.75 65.79,-21.3 135.02,-31.96 207.7,-31.96 131.58,0 235.28,34.46 311.1,103.07 75.82,68.92 113.73,166.36 113.73,292.93l0 362.16c0,23.81 4.07,40.41 12.21,50.45 8.15,9.7 22.25,15.35 42.3,16.6l0 165.42c-18.8,3.76 -35.72,6.26 -50.75,7.52 -15.04,1.25 -27.57,1.88 -37.6,1.88 -43.87,0 -77.08,-10.65 -99.63,-31.95 -22.55,-21.3 -35.71,-46.37 -39.47,-75.19l-5.65 -56.39c-42.61,55.14 -97.11,97.75 -163.53,127.82 -66.42,30.07 -133.47,45.11 -201.14,45.11 -65.16,0 -123.43,-13.46 -174.81,-40.1 -51.38,-26.63 -91.48,-62.97 -120.3,-109.03 -28.82,-45.74 -43.24,-97.43 -43.24,-154.45zm625.95 58.9c15.04,-15.97 26.95,-31.95 35.72,-47.93 8.77,-16.29 13.16,-30.38 13.16,-42.61l0 -110.9c-35.09,-13.47 -72.06,-23.81 -110.9,-30.7 -38.86,-6.58 -77.08,-10.03 -114.66,-10.03 -75.19,0 -136.28,14.72 -183.28,44.49 -46.99,29.45 -70.49,70.18 -70.49,121.87 0,28.51 7.83,55.46 23.5,81.45 15.66,25.7 38.22,46.68 67.67,62.66 29.45,15.99 66.1,24.12 109.96,24.12 45.12,0 88.35,-8.77 129.71,-26 41.36,-17.24 74.56,-39.16 99.62,-66.42z"/>
  <path id="10" class="fil1" d="M8468.63 2818.7c-80.2,1.25 -151.32,19.43 -213.35,54.51 -62.03,35.09 -106.21,84.59 -132.52,148.5l0 601.51 -206.77 0 0 -975.58 191.74 0 0 212.41c33.84,-67.67 78.32,-121.88 133.46,-162.6 55.14,-40.73 113.41,-62.98 174.81,-66.73 12.53,0 22.87,0 31.02,0 8.15,0 15.35,0.63 21.62,1.88l0 186.09z"/>
  <path id="11" class="fil1" d="M9166.02 3576.23c-17.55,8.77 -39.48,18.17 -65.8,28.2 -26.31,10.02 -56.08,18.79 -89.29,26.31 -33.2,7.52 -67.35,11.27 -102.44,11.27 -42.61,0 -82.09,-7.51 -118.42,-22.55 -36.35,-14.72 -65.48,-38.85 -87.41,-72.06 -21.94,-32.89 -32.9,-75.82 -32.9,-128.14l0 -611.85 -129.7 0 0 -159.77 129.7 0 0 -323.32 206.77 0 0 323.32 214.29 0 0 159.77 -214.29 0 0 545.75c2.51,33.53 13.47,58.59 32.89,74.57 19.43,16.29 43.55,24.44 72.37,24.44 28.82,0 56.39,-5.02 82.71,-15.04 26.31,-10.02 45.73,-18.17 58.26,-24.44l43.24 163.54z"/>
  <path id="12" class="fil1" d="M9308.87 3623.22l0 -983.1 206.77 0 0 983.1 -206.77 0zm0 -1144.75l0 -227.45 206.77 0 0 227.45 -206.77 0z"/>
  <path id="13" class="fil1" d="M10209.26 3642.01c-76.45,0 -145.68,-13.46 -207.71,-40.1 -62.03,-26.63 -115.61,-63.6 -160.71,-110.9 -45.12,-46.99 -79.9,-101.2 -104.33,-161.97 -24.43,-60.77 -36.65,-125.32 -36.65,-193.62 0,-91.79 21,-175.75 62.98,-251.57 41.97,-75.5 100.87,-136.27 176.69,-182.33 75.82,-46.05 165.73,-68.92 269.75,-68.92 100.25,0 187.65,22.25 262.22,66.73 74.57,44.49 129.39,103.7 164.47,177.64l-201.13 63.91c-22.56,-41.36 -54.2,-73.62 -94.93,-96.81 -40.73,-23.18 -85.53,-34.77 -134.4,-34.77 -55.14,0 -104.96,13.78 -149.44,41.66 -44.49,27.88 -79.58,66.1 -105.27,114.98 -25.69,48.87 -38.54,105.27 -38.54,169.48 0,61.72 13.16,117.8 39.48,167.61 26.31,50.13 61.72,89.61 106.2,118.74 44.49,29.13 94.3,43.55 149.44,43.55 33.84,0 66.73,-5.95 98.69,-17.86 31.95,-11.91 59.84,-28.2 83.65,-48.88 23.81,-20.67 40.73,-43.54 50.75,-68.6l203.01 60.15c-21.3,48.87 -52.95,92.11 -94.93,129.71 -41.98,37.59 -91.47,67.35 -148.5,89.28 -57.01,21.93 -120.62,32.89 -190.79,32.89z"/>
  <path id="14" class="fil1" d="M10814.53 3623.22l0 -983.1 206.77 0 0 983.1 -206.77 0zm0 -1144.75l0 -227.45 206.77 0 0 227.45 -206.77 0z"/>
  <path id="15" class="fil1" d="M11827.7 3642.01c-78.94,0 -148.5,-18.48 -208.65,-55.76 -60.15,-37.28 -107.78,-85.84 -142.86,-145.36l0 582.72 -206.77 0 0 -1375.96 182.33 0 0 176.69c37.6,-58.26 86.47,-104.95 146.62,-139.73 60.15,-34.77 127.19,-52 201.14,-52 67.66,0 129.7,13.47 186.08,40.1 56.4,26.63 105.27,63.6 146.62,110.91 41.36,46.99 73.62,100.88 96.8,161.03 23.19,60.15 34.78,123.74 34.78,190.79 0,93.05 -18.49,178.27 -55.45,255.02 -36.97,77.07 -88.35,138.16 -154.14,183.58 -65.79,45.42 -141.29,67.98 -226.51,67.98zm-67.67 -176.69c43.87,0 83.65,-9.41 119.37,-27.88 35.71,-18.49 66.42,-43.24 92.11,-73.94 25.69,-31.02 45.42,-66.1 59.21,-105.89 13.78,-39.47 20.68,-80.2 20.68,-122.18 0,-44.48 -7.52,-86.46 -22.55,-125.93 -15.04,-39.48 -36.65,-74.26 -64.85,-103.7 -28.2,-29.77 -60.77,-53.26 -97.75,-70.5 -36.97,-17.23 -77.38,-26 -121.24,-26 -26.32,0 -53.89,5.01 -82.71,14.72 -28.82,10.02 -55.76,23.5 -80.83,40.72 -25.06,17.24 -46.99,37.6 -65.8,60.78 -18.79,23.5 -31.95,48.24 -39.47,73.93l0 255.33c17.54,39.16 40.73,74.57 69.56,106.21 28.81,31.32 62.02,56.7 99.62,75.81 37.6,19.11 75.82,28.52 114.66,28.52z"/>
  <path id="16" class="fil1" d="M12378.46 3338.44c0,-62.02 17.86,-116.54 53.58,-162.91 35.71,-46.68 84.9,-82.71 147.56,-108.08 62.66,-25.38 135.34,-38.22 218.04,-38.22 43.87,0 88.67,3.13 134.41,9.4 45.73,6.26 86.16,16.29 121.24,30.07l0 -61.72c0,-67.99 -20.68,-120.93 -62.03,-159.15 -41.36,-38.22 -100.88,-57.33 -178.57,-57.33 -55.14,0 -107.14,9.71 -156.02,29.14 -48.87,19.42 -100.88,46.67 -156.02,81.77l-69.55 -139.1c65.16,-43.87 130.64,-76.44 196.43,-97.75 65.79,-21.3 135.02,-31.96 207.7,-31.96 131.58,0 235.28,34.46 311.1,103.07 75.82,68.92 113.73,166.36 113.73,292.93l0 362.16c0,23.81 4.07,40.41 12.21,50.45 8.15,9.7 22.25,15.35 42.3,16.6l0 165.42c-18.8,3.76 -35.72,6.26 -50.75,7.52 -15.04,1.25 -27.57,1.88 -37.6,1.88 -43.87,0 -77.08,-10.65 -99.63,-31.95 -22.55,-21.3 -35.71,-46.37 -39.47,-75.19l-5.65 -56.39c-42.61,55.14 -97.11,97.75 -163.53,127.82 -66.42,30.07 -133.47,45.11 -201.14,45.11 -65.16,0 -123.43,-13.46 -174.81,-40.1 -51.38,-26.63 -91.48,-62.97 -120.3,-109.03 -28.82,-45.74 -43.24,-97.43 -43.24,-154.45zm625.95 58.9c15.04,-15.97 26.95,-31.95 35.72,-47.93 8.77,-16.29 13.16,-30.38 13.16,-42.61l0 -110.9c-35.09,-13.47 -72.06,-23.81 -110.9,-30.7 -38.86,-6.58 -77.08,-10.03 -114.66,-10.03 -75.19,0 -136.28,14.72 -183.28,44.49 -46.99,29.45 -70.49,70.18 -70.49,121.87 0,28.51 7.83,55.46 23.5,81.45 15.66,25.7 38.22,46.68 67.67,62.66 29.45,15.99 66.1,24.12 109.96,24.12 45.12,0 88.35,-8.77 129.71,-26 41.36,-17.24 74.56,-39.16 99.62,-66.42z"/>
  <path id="17" class="fil1" d="M13955.56 3642.01c-76.45,0 -145.68,-13.46 -207.71,-40.1 -62.03,-26.63 -115.61,-63.6 -160.71,-110.9 -45.12,-46.99 -79.9,-101.2 -104.33,-161.97 -24.43,-60.77 -36.65,-125.32 -36.65,-193.62 0,-91.79 21,-175.75 62.98,-251.57 41.97,-75.5 100.87,-136.27 176.69,-182.33 75.82,-46.05 165.73,-68.92 269.75,-68.92 100.25,0 187.65,22.25 262.22,66.73 74.57,44.49 129.39,103.7 164.47,177.64l-201.13 63.91c-22.56,-41.36 -54.2,-73.62 -94.93,-96.81 -40.73,-23.18 -85.53,-34.77 -134.4,-34.77 -55.14,0 -104.96,13.78 -149.44,41.66 -44.49,27.88 -79.58,66.1 -105.27,114.98 -25.69,48.87 -38.54,105.27 -38.54,169.48 0,61.72 13.16,117.8 39.48,167.61 26.31,50.13 61.72,89.61 106.2,118.74 44.49,29.13 94.3,43.55 149.44,43.55 33.84,0 66.73,-5.95 98.69,-17.86 31.95,-11.91 59.84,-28.2 83.65,-48.88 23.81,-20.67 40.73,-43.54 50.75,-68.6l203.01 60.15c-21.3,48.87 -52.95,92.11 -94.93,129.71 -41.98,37.59 -91.47,67.35 -148.5,89.28 -57.01,21.93 -120.62,32.89 -190.79,32.89z"/>
  <path id="18" class="fil1" d="M14560.82 3623.22l0 -983.1 206.77 0 0 983.1 -206.77 0zm0 -1144.75l0 -227.45 206.77 0 0 227.45 -206.77 0z"/>
  <path id="19" class="fil1" d="M15457.46 3642.01c-77.7,0 -147.25,-13.46 -208.66,-40.1 -61.4,-26.63 -114.35,-63.6 -158.84,-110.9 -44.48,-46.99 -78.63,-100.88 -102.44,-161.03 -23.81,-60.15 -35.72,-124.38 -35.72,-192.67 0,-68.3 11.91,-132.84 35.72,-193.62 23.8,-60.77 57.96,-114.66 102.44,-161.03 44.49,-46.68 97.75,-83.34 159.78,-109.97 62.03,-26.62 131.27,-40.1 207.71,-40.1 76.44,0 145.68,13.47 207.7,40.1 62.03,26.63 115.29,63.28 159.78,109.97 44.48,46.37 78.63,100.26 102.45,161.03 23.8,60.77 35.71,125.32 35.71,193.62 0,68.3 -11.91,132.52 -35.71,192.67 -23.81,60.15 -57.97,114.04 -102.45,161.03 -44.49,47.3 -97.75,84.27 -159.78,110.9 -62.02,26.63 -131.26,40.1 -207.7,40.1zm-293.25 -502.83c0,61.72 13.16,117.48 39.48,166.68 26.31,49.49 61.4,88.34 105.27,116.86 43.86,28.51 93.36,42.61 148.5,42.61 53.88,0 103.06,-14.42 147.56,-43.55 44.49,-29.13 79.88,-68.61 106.21,-118.74 26.31,-49.81 39.47,-105.26 39.47,-165.72 0,-61.72 -13.16,-117.49 -39.47,-166.68 -26.32,-49.49 -61.72,-88.66 -106.21,-117.79 -44.49,-29.14 -93.68,-43.55 -147.56,-43.55 -55.14,0 -104.64,14.72 -148.5,44.48 -43.87,29.77 -78.95,68.93 -105.27,117.8 -26.32,48.56 -39.48,104.64 -39.48,167.61zm362.79 -640.05l-135.34 -41.35 107.14 -206.77 197.38 0 -169.18 248.12z"/>
  <path id="20" class="fil1" d="M17028.91 3623.22l-206.77 0 0 -544.5c0,-90.22 -14.72,-156.64 -44.17,-198.63 -29.45,-42.29 -73,-63.27 -130.65,-63.27 -40.1,0 -79.88,9.7 -119.36,29.44 -39.48,19.75 -74.87,46.68 -106.21,80.52 -31.32,33.84 -53.89,73 -67.67,117.48l0 578.96 -206.77 0 0 -975.58 187.98 0 0 197.37c25.06,-43.55 57.96,-81.13 98.69,-112.78 40.72,-31.64 86.78,-56.08 138.16,-73.62 51.38,-17.24 105.89,-26.01 163.53,-26.01 58.9,0 107.46,10.66 145.68,31.64 38.22,20.99 68.3,50.13 90.22,86.46 21.94,36.66 36.97,78.95 45.12,126.89 8.15,47.62 12.22,98.37 12.22,151.63l0 593.99z"/>
  <path id="21" class="fil1" d="M17675.54 2944.64c0,-81.46 14.41,-161.35 43.23,-239.66 28.82,-78.33 71.11,-149.76 126.88,-214.29 55.76,-64.53 123.75,-115.91 203.95,-154.13 80.2,-38.22 171.05,-57.33 272.56,-57.33 120.31,0 224.31,27.25 312.04,81.76 87.72,54.51 152.88,124.38 195.49,209.59l-165.42 110.91c-25.06,-53.89 -56.71,-96.5 -94.93,-127.83 -38.22,-31.32 -79.58,-53.25 -124.06,-65.79 -44.49,-12.53 -88.03,-18.8 -130.65,-18.8 -70.17,0 -131.58,14.1 -184.21,42.3 -52.63,28.2 -96.8,65.48 -132.52,111.84 -35.71,46.37 -62.66,98.37 -80.83,156.02 -18.17,57.64 -27.26,115.29 -27.26,172.93 0,63.92 10.66,125.64 31.96,185.16 21.3,59.52 51.06,112.15 89.28,157.89 38.22,45.74 83.66,81.77 136.28,108.08 52.63,26.31 110.28,39.47 172.94,39.47 42.61,0 87.09,-7.51 133.46,-22.55 46.37,-15.04 89.29,-38.54 128.76,-70.49 39.48,-31.96 70.49,-74.25 93.05,-126.89l174.81 99.63c-27.56,66.42 -70.49,122.81 -128.76,169.18 -58.27,46.37 -123.43,81.45 -195.49,105.27 -72.06,23.8 -143.17,35.71 -213.35,35.71 -93.98,0 -179.82,-19.74 -257.53,-59.21 -77.69,-39.48 -144.74,-92.11 -201.13,-157.9 -56.4,-65.79 -100.26,-139.73 -131.58,-221.8 -31.34,-82.08 -46.99,-165.1 -46.99,-249.06z"/>
  <path id="22" class="fil1" d="M19019.55 3623.22l0 -983.1 206.77 0 0 983.1 -206.77 0zm0 -1144.75l0 -227.45 206.77 0 0 227.45 -206.77 0z"/>
  <path id="23" class="fil1" d="M19465.04 3244.77l0 -597.13 206.77 0 0 555.15c0,86.78 15.97,152.26 47.93,196.43 31.95,44.17 78.63,66.1 140.03,66.1 38.85,0 76.76,-8.15 113.73,-24.12 36.96,-15.99 70.8,-39.79 101.51,-71.43 30.7,-31.34 55.45,-69.56 74.25,-114.04l0 -608.09 206.77 0 0 743.12c0,23.5 4.39,40.41 13.16,50.45 8.77,9.7 23.18,15.35 43.23,16.6l0 165.42c-21.3,3.76 -38.85,6.26 -52.64,7.52 -13.78,1.25 -26.94,1.88 -39.47,1.88 -37.6,0 -68.92,-10.34 -93.98,-30.7 -25.06,-20.68 -39.47,-46.99 -43.23,-79.26l-3.76 -97.12c-43.87,70.81 -100.88,124.68 -171.06,161.34 -70.17,36.66 -147.24,55.14 -231.2,55.14 -102.76,0 -180.46,-33.52 -233.09,-100.87 -52.64,-67.05 -78.95,-166.05 -78.95,-296.37z"/>
  <path id="24" class="fil1" d="M20557.17 3137.31c0,-93.05 19.11,-177.95 57.33,-254.08 38.22,-76.44 90.54,-137.22 156.95,-182.64 66.42,-45.43 142.86,-67.99 229.33,-67.99 75.19,0 143.18,19.43 203.95,58.27 60.77,38.85 108.08,87.09 141.92,144.74l0 -584.6 206.77 0 0 1139.12c0,23.81 4.39,40.73 13.16,50.75 8.77,10.02 23.19,15.67 43.23,16.92l0 165.42c-38.85,6.26 -68.92,9.4 -90.22,9.4 -38.85,0 -71.74,-11.27 -98.69,-33.84 -26.94,-22.55 -41.04,-49.49 -42.29,-80.83l-1.89 -73.31c-37.6,62.66 -88.35,111.22 -152.26,145.68 -63.91,34.46 -130.33,51.69 -199.25,51.69 -67.67,0 -130.01,-13.16 -187.03,-39.15 -57.02,-26.01 -106.53,-62.66 -148.51,-109.97 -41.97,-46.99 -74.56,-101.19 -97.75,-161.97 -23.18,-60.77 -34.77,-125.31 -34.77,-193.6zm789.48 135.34l0 -254.08c-13.78,-39.47 -36.03,-74.87 -66.73,-106.52 -30.7,-31.32 -65.17,-56.39 -103.39,-74.87 -38.22,-18.49 -76.12,-27.88 -113.72,-27.88 -43.86,0 -83.65,9.4 -119.37,27.88 -35.71,18.49 -66.41,43.23 -92.1,73.93 -25.69,31.02 -45.43,66.1 -59.22,105.89 -13.78,39.48 -20.68,80.83 -20.68,124.07 0,44.48 7.52,86.15 22.56,125 15.03,38.85 36.65,73.62 64.84,103.7 28.2,30.38 60.78,53.88 97.75,70.49 36.97,16.6 77.38,25.06 121.25,25.06 27.56,0 55.45,-5.01 83.65,-14.72 28.2,-10.03 55.14,-23.5 80.83,-40.73 25.69,-17.54 47.62,-37.9 65.8,-61.4 18.17,-23.5 31.01,-48.56 38.53,-75.82z"/>
  <path id="25" class="fil1" d="M21745.15 3338.44c0,-62.02 17.86,-116.54 53.58,-162.91 35.71,-46.68 84.9,-82.71 147.56,-108.08 62.66,-25.38 135.34,-38.22 218.04,-38.22 43.87,0 88.67,3.13 134.41,9.4 45.73,6.26 86.16,16.29 121.24,30.07l0 -61.72c0,-67.99 -20.68,-120.93 -62.03,-159.15 -41.36,-38.22 -100.88,-57.33 -178.57,-57.33 -55.14,0 -107.14,9.71 -156.02,29.14 -48.87,19.42 -100.88,46.67 -156.02,81.77l-69.55 -139.1c65.16,-43.87 130.64,-76.44 196.43,-97.75 65.79,-21.3 135.02,-31.96 207.7,-31.96 131.58,0 235.28,34.46 311.1,103.07 75.82,68.92 113.73,166.36 113.73,292.93l0 362.16c0,23.81 4.07,40.41 12.21,50.45 8.15,9.7 22.25,15.35 42.3,16.6l0 165.42c-18.8,3.76 -35.72,6.26 -50.75,7.52 -15.04,1.25 -27.57,1.88 -37.6,1.88 -43.87,0 -77.08,-10.65 -99.63,-31.95 -22.55,-21.3 -35.71,-46.37 -39.47,-75.19l-5.65 -56.39c-42.61,55.14 -97.11,97.75 -163.53,127.82 -66.42,30.07 -133.47,45.11 -201.14,45.11 -65.16,0 -123.43,-13.46 -174.81,-40.1 -51.38,-26.63 -91.48,-62.97 -120.3,-109.03 -28.82,-45.74 -43.24,-97.43 -43.24,-154.45zm625.95 58.9c15.04,-15.97 26.95,-31.95 35.72,-47.93 8.77,-16.29 13.16,-30.38 13.16,-42.61l0 -110.9c-35.09,-13.47 -72.06,-23.81 -110.9,-30.7 -38.86,-6.58 -77.08,-10.03 -114.66,-10.03 -75.19,0 -136.28,14.72 -183.28,44.49 -46.99,29.45 -70.49,70.18 -70.49,121.87 0,28.51 7.83,55.46 23.5,81.45 15.66,25.7 38.22,46.68 67.67,62.66 29.45,15.99 66.1,24.12 109.96,24.12 45.12,0 88.35,-8.77 129.71,-26 41.36,-17.24 74.56,-39.16 99.62,-66.42z"/>
  <path id="26" class="fil1" d="M22814.72 3137.31c0,-93.05 19.11,-177.95 57.33,-254.08 38.22,-76.44 90.54,-137.22 156.95,-182.64 66.42,-45.43 142.86,-67.99 229.33,-67.99 75.19,0 143.18,19.43 203.95,58.27 60.77,38.85 108.08,87.09 141.92,144.74l0 -584.6 206.77 0 0 1139.12c0,23.81 4.39,40.73 13.16,50.75 8.77,10.02 23.19,15.67 43.23,16.92l0 165.42c-38.85,6.26 -68.92,9.4 -90.22,9.4 -38.85,0 -71.74,-11.27 -98.69,-33.84 -26.94,-22.55 -41.04,-49.49 -42.29,-80.83l-1.89 -73.31c-37.6,62.66 -88.35,111.22 -152.26,145.68 -63.91,34.46 -130.33,51.69 -199.25,51.69 -67.67,0 -130.01,-13.16 -187.03,-39.15 -57.02,-26.01 -106.53,-62.66 -148.51,-109.97 -41.97,-46.99 -74.56,-101.19 -97.75,-161.97 -23.18,-60.77 -34.77,-125.31 -34.77,-193.6zm789.48 135.34l0 -254.08c-13.78,-39.47 -36.03,-74.87 -66.73,-106.52 -30.7,-31.32 -65.17,-56.39 -103.39,-74.87 -38.22,-18.49 -76.12,-27.88 -113.72,-27.88 -43.86,0 -83.65,9.4 -119.37,27.88 -35.71,18.49 -66.41,43.23 -92.1,73.93 -25.69,31.02 -45.43,66.1 -59.22,105.89 -13.78,39.48 -20.68,80.83 -20.68,124.07 0,44.48 7.52,86.15 22.56,125 15.03,38.85 36.65,73.62 64.84,103.7 28.2,30.38 60.78,53.88 97.75,70.49 36.97,16.6 77.38,25.06 121.25,25.06 27.56,0 55.45,-5.01 83.65,-14.72 28.2,-10.03 55.14,-23.5 80.83,-40.73 25.69,-17.54 47.62,-37.9 65.8,-61.4 18.17,-23.5 31.01,-48.56 38.53,-75.82z"/>
  <path id="27" class="fil1" d="M24002.71 3338.44c0,-62.02 17.86,-116.54 53.58,-162.91 35.71,-46.68 84.9,-82.71 147.56,-108.08 62.66,-25.38 135.34,-38.22 218.04,-38.22 43.87,0 88.67,3.13 134.41,9.4 45.73,6.26 86.16,16.29 121.24,30.07l0 -61.72c0,-67.99 -20.68,-120.93 -62.03,-159.15 -41.36,-38.22 -100.88,-57.33 -178.57,-57.33 -55.14,0 -107.14,9.71 -156.02,29.14 -48.87,19.42 -100.88,46.67 -156.02,81.77l-69.55 -139.1c65.16,-43.87 130.64,-76.44 196.43,-97.75 65.79,-21.3 135.02,-31.96 207.7,-31.96 131.58,0 235.28,34.46 311.1,103.07 75.82,68.92 113.73,166.36 113.73,292.93l0 362.16c0,23.81 4.07,40.41 12.21,50.45 8.15,9.7 22.25,15.35 42.3,16.6l0 165.42c-18.8,3.76 -35.72,6.26 -50.75,7.52 -15.04,1.25 -27.57,1.88 -37.6,1.88 -43.87,0 -77.08,-10.65 -99.63,-31.95 -22.55,-21.3 -35.71,-46.37 -39.47,-75.19l-5.65 -56.39c-42.61,55.14 -97.11,97.75 -163.53,127.82 -66.42,30.07 -133.47,45.11 -201.14,45.11 -65.16,0 -123.43,-13.46 -174.81,-40.1 -51.38,-26.63 -91.48,-62.97 -120.3,-109.03 -28.82,-45.74 -43.24,-97.43 -43.24,-154.45zm625.95 58.9c15.04,-15.97 26.95,-31.95 35.72,-47.93 8.77,-16.29 13.16,-30.38 13.16,-42.61l0 -110.9c-35.09,-13.47 -72.06,-23.81 -110.9,-30.7 -38.86,-6.58 -77.08,-10.03 -114.66,-10.03 -75.19,0 -136.28,14.72 -183.28,44.49 -46.99,29.45 -70.49,70.18 -70.49,121.87 0,28.51 7.83,55.46 23.5,81.45 15.66,25.7 38.22,46.68 67.67,62.66 29.45,15.99 66.1,24.12 109.96,24.12 45.12,0 88.35,-8.77 129.71,-26 41.36,-17.24 74.56,-39.16 99.62,-66.42z"/>
  <path id="28" class="fil1" d="M26015.9 3623.22l-206.77 0 0 -544.5c0,-90.22 -14.72,-156.64 -44.17,-198.63 -29.45,-42.29 -73,-63.27 -130.65,-63.27 -40.1,0 -79.88,9.7 -119.36,29.44 -39.48,19.75 -74.87,46.68 -106.21,80.52 -31.32,33.84 -53.89,73 -67.67,117.48l0 578.96 -206.77 0 0 -975.58 187.98 0 0 197.37c25.06,-43.55 57.96,-81.13 98.69,-112.78 40.72,-31.64 86.78,-56.08 138.16,-73.62 51.38,-17.24 105.89,-26.01 163.53,-26.01 58.9,0 107.46,10.66 145.68,31.64 38.22,20.99 68.3,50.13 90.22,86.46 21.94,36.66 36.97,78.95 45.12,126.89 8.15,47.62 12.22,98.37 12.22,151.63l0 593.99z"/>
  <path id="29" class="fil1" d="M26185.07 3338.44c0,-62.02 17.86,-116.54 53.58,-162.91 35.71,-46.68 84.9,-82.71 147.56,-108.08 62.66,-25.38 135.34,-38.22 218.04,-38.22 43.87,0 88.67,3.13 134.41,9.4 45.73,6.26 86.16,16.29 121.24,30.07l0 -61.72c0,-67.99 -20.68,-120.93 -62.03,-159.15 -41.36,-38.22 -100.88,-57.33 -178.57,-57.33 -55.14,0 -107.14,9.71 -156.02,29.14 -48.87,19.42 -100.88,46.67 -156.02,81.77l-69.55 -139.1c65.16,-43.87 130.64,-76.44 196.43,-97.75 65.79,-21.3 135.02,-31.96 207.7,-31.96 131.58,0 235.28,34.46 311.1,103.07 75.82,68.92 113.73,166.36 113.73,292.93l0 362.16c0,23.81 4.07,40.41 12.21,50.45 8.15,9.7 22.25,15.35 42.3,16.6l0 165.42c-18.8,3.76 -35.72,6.26 -50.75,7.52 -15.04,1.25 -27.57,1.88 -37.6,1.88 -43.87,0 -77.08,-10.65 -99.63,-31.95 -22.55,-21.3 -35.71,-46.37 -39.47,-75.19l-5.65 -56.39c-42.61,55.14 -97.11,97.75 -163.53,127.82 -66.42,30.07 -133.47,45.11 -201.14,45.11 -65.16,0 -123.43,-13.46 -174.81,-40.1 -51.38,-26.63 -91.48,-62.97 -120.3,-109.03 -28.82,-45.74 -43.24,-97.43 -43.24,-154.45zm625.95 58.9c15.04,-15.97 26.95,-31.95 35.72,-47.93 8.77,-16.29 13.16,-30.38 13.16,-42.61l0 -110.9c-35.09,-13.47 -72.06,-23.81 -110.9,-30.7 -38.86,-6.58 -77.08,-10.03 -114.66,-10.03 -75.19,0 -136.28,14.72 -183.28,44.49 -46.99,29.45 -70.49,70.18 -70.49,121.87 0,28.51 7.83,55.46 23.5,81.45 15.66,25.7 38.22,46.68 67.67,62.66 29.45,15.99 66.1,24.12 109.96,24.12 45.12,0 88.35,-8.77 129.71,-26 41.36,-17.24 74.56,-39.16 99.62,-66.42z"/>
 </g>
</svg>
